<?xml version="1.0" encoding="utf-8"?>
<!-- Generator: Adobe Illustrator 25.3.1, SVG Export Plug-In . SVG Version: 6.00 Build 0)  -->
<svg version="1.1" id="_x31_" xmlns="http://www.w3.org/2000/svg" xmlns:xlink="http://www.w3.org/1999/xlink" x="0px" y="0px"
	 viewBox="0 0 499 380" style="enable-background:new 0 0 499 380;" xml:space="preserve">
<style type="text/css">
	.st0{fill:#F7BA57;}
	.st1{fill:#F2A446;}
	.st2{fill:#A09A48;}
	.st3{fill:#B5AA48;}
	.st4{fill:#7F3C44;}
	.st5{fill:#C1A78A;}
	.st6{fill:#E0C7AD;}
	.st7{fill:#BCA7A7;}
	.st8{fill:#DBC8C8;}
	.st9{fill:#49363D;}
	.st10{fill:#EFDFDF;}
	.st11{fill:#D6BDBD;}
	.st12{fill:#8758AF;}
	.st13{fill:#744C9E;}
	.st14{fill:#99476C;}
	.st15{fill:#F4DEBA;}
	.st16{fill:#5C8EBC;}
	.st17{fill:#3F7099;}
	.st18{fill:#5385AA;}
	.st19{fill:#EF9348;}
	.st20{fill:#DD704A;}
	.st21{fill:#E5DDCF;}
	.st22{fill:#FFA77B;}
	.st23{fill:#662828;}
	.st24{fill:#E5C595;}
	.st25{fill:#AA445A;}
	.st26{fill:#7C4C4C;}
	.st27{fill:#513F46;}
	.st28{fill:#352A2F;}
	.st29{fill:#685159;}
	.st30{fill:#C64A4A;}
	.st31{fill:#684191;}
	.st32{fill:#73469B;}
	.st33{fill:#915CB7;}
	.st34{fill:#3F3335;}
	.st35{fill:#EDE1D6;}
	.st36{fill:#F4EDE4;}
</style>
<g>
	<path class="st0" d="M145.6,130.9c14.8,0,34.7,3.9,34.7,3.9l31.3,3.3l-0.3-13.3l-31.7-10.3l-40.2-11.6L145.6,130.9z"/>
	<path class="st1" d="M177.4,124.4c0,0-18.6-9-34.8-10.6l3.1,17.2c14.8,0,34.7,3.9,34.7,3.9l31.3,3.3l-0.1-7.6L177.4,124.4z"/>
	<g>
		<g>
			<path class="st2" d="M414.2,211.5c-2.8-12.9-6.3-25.9-9.4-37.5c-5.4-20.3-9.7-36.3-8.5-44.2l1.2,0.2c-1.2,7.6,3.2,24.3,8.4,43.6
				c3.1,11.5,6.6,24.6,9.4,37.5L414.2,211.5z"/>
		</g>
		<g>
			<path class="st2" d="M409.3,186.5l-1.2-0.2c5.8-29.3,26.6-47.2,26.8-47.4l0.8,0.9C435.5,140,415,157.6,409.3,186.5z"/>
		</g>
		<g>
			<path class="st2" d="M406.3,178.8c-0.1-0.2-9.1-15.4-23-26l0.7-0.9c14.1,10.8,23.2,26.2,23.3,26.4L406.3,178.8z"/>
		</g>
		<g>
			<path class="st2" d="M396.7,139.1c-8-29.7-15.5-33.5-15.6-33.5l0.5-1.1c0.3,0.2,8.1,4.1,16.3,34.3L396.7,139.1z"/>
		</g>
		<g>
			<path class="st2" d="M396.7,134.2l-1.2-0.3c6-27.7,20.5-39.8,20.7-40l0.8,1C416.8,95,402.6,106.9,396.7,134.2z"/>
		</g>
		<path class="st2" d="M373.5,139.3c-7.7,0.6,5.3,14.4,26.1,29.5l0.6-1.6C396.3,143.9,385.1,138.4,373.5,139.3z"/>
		<path class="st2" d="M418.1,88.9c-2.3,0.5-19.2,20.3-21,38.1l0.7,2.1c12.5-15,21.2-24.6,22.6-30.8
			C421.7,92.2,420.4,88.4,418.1,88.9z"/>
		<path class="st2" d="M444.3,136.6c-4.9-5.8-20.2,6.6-26.4,22.9l-3.1,9c5.9-7.4,26.7-11.1,31.8-14.8
			C451.8,150.1,449.3,142.5,444.3,136.6z"/>
		<path class="st2" d="M393.6,128.8c0-19.7-6.3-27.1-15.6-27.1c-9.3,0,5.8,5.2,10,14.6C392,125.6,393.6,128.8,393.6,128.8z"/>
		<path class="st3" d="M422.9,149.9c4.7,2.7,11.6,4.4,19.3,4.4c1.4,0,2.7-0.1,4-0.2c0.2-0.1,0.4-0.2,0.5-0.3
			c5.2-3.7,2.6-11.3-2.4-17.1C440.4,132,430.1,138.8,422.9,149.9z"/>
		<path class="st3" d="M387.9,142.7c-4.4-3-9.4-3.9-14.4-3.5c-6.9,0.5,2.8,11.7,19.9,24.9c2-5,0.3-13.2-4.9-20.7
			C388.2,143.2,388.1,143,387.9,142.7z"/>
		<path class="st3" d="M418.1,88.9c0,0-0.1,0-0.1,0.1c-0.5,0.4-1,0.7-1.5,1.2c-1,1-2.4,2.4-3.9,4.3c-1.9,2.7-3.5,5.9-4.6,9.6
			c-1.6,5.2-1.9,10.2-1.1,14.4c7.6-9.1,12.6-15.5,13.6-20.1C421.7,92.2,420.4,88.4,418.1,88.9z"/>
		<path class="st3" d="M387.3,115.1c1.5-1.6,2.4-3.8,2.6-6.2c-2.8-5-6.9-7.2-11.9-7.2C369,101.7,382.5,106.5,387.3,115.1z"/>
		<path class="st2" d="M421.3,158.3l1.1,0.9c2.8-5.5,18.4-18,18.4-18S431.4,145,421.3,158.3z"/>
		<path class="st2" d="M403.3,116l1.1,0.6c1.3-4.9,11.4-17.7,11.4-17.7S409,103.6,403.3,116z"/>
		<path class="st2" d="M396.9,161.4l-0.7,1c-3.4-5.8-18.6-19.1-18.6-19.1S386,147.3,396.9,161.4z"/>
	</g>
	<path class="st4" d="M412.9,200.9c0,0-4.5,2.9-8.8,12.2l24.4,0.7C425.4,205.5,412.9,200.9,412.9,200.9z"/>
	<path class="st5" d="M433.1,209.6c-20.6-4.3-32.8,0-32.8,0s-1.7,12.3,6.4,23.1h20.1C433.4,222.4,433.1,209.6,433.1,209.6z"/>
	<path class="st6" d="M433.1,209.6c-10.5-2.2-18.8-2.1-24.4-1.6c0,0.7-0.1,1.4-0.1,2c0,11.8,7,21.3,15.5,21.3c1.3,0,2.6-0.3,3.8-0.7
		C433.3,220.8,433.1,209.6,433.1,209.6z"/>
	<g>
		<polygon class="st7" points="428.3,238.3 423.1,238.3 428.5,312.6 430.1,312.6 		"/>
		<polygon class="st7" points="395,238.3 400.1,238.3 395.2,312.6 393.7,312.6 		"/>
		<path class="st8" d="M440.4,233.6c-16.1-2.3-31.9-2.4-47.6,0v6.5h47.6V233.6z"/>
		<polygon class="st8" points="438.4,238.3 433.3,238.3 438.7,312.6 440.3,312.6 		"/>
		<polygon class="st8" points="405.1,238.3 410.3,238.3 405.4,312.6 403.8,312.6 		"/>
		<path class="st7" d="M408.1,232.1c-5.1,0.3-10.2,0.8-15.3,1.5v6.5h15.3V232.1z"/>
	</g>
	<rect x="137.4" y="299.5" class="st9" width="265.6" height="13.1"/>
	<path class="st10" d="M208.4,140.6c-3.3-13.6-2.3-18.5-2.3-18.5l8.7,3.2c0,0,11.1,2,13.6,3.4c2.5,1.4,7.1,7.8,7.1,7.8l-16.7,0
		L208.4,140.6z"/>
	<path class="st11" d="M218.2,135.6c-7.4-1.6-9.9-6.9-12.3-10.4c0.1,2.8,0.6,7.7,2.4,15.3l10.5-4l16.7,0c0,0-0.8-1.1-1.8-2.4
		C230.3,134.7,222.6,136.5,218.2,135.6z"/>
	<path class="st12" d="M348.6,249.8h-213l-2-72.7c-0.6-22.2,17.2-40.6,39.5-40.6h110c25.8,0,48.4,17.6,54.5,42.7
		C343.2,202.3,347.1,225.8,348.6,249.8z"/>
	<g>
		<path class="st13" d="M298,161.7c-0.4-2.2-1.7-3.9-2.8-3.9c-1.1,0-1.7,1.7-1.3,3.9c0.4,2.2,1.7,3.9,2.8,3.9
			C297.9,165.6,298.5,163.9,298,161.7z"/>
		<path class="st13" d="M311.7,219.9c-0.4-2.2-1.7-3.9-2.8-3.9c-1.1,0-1.7,1.7-1.3,3.9c0.4,2.2,1.7,3.9,2.8,3.9
			C311.5,223.8,312.1,222.1,311.7,219.9z"/>
		<path class="st13" d="M251.2,161.7c-0.4-2.2-1.7-3.9-2.8-3.9s-1.7,1.7-1.3,3.9c0.4,2.2,1.7,3.9,2.8,3.9
			C251,165.6,251.6,163.9,251.2,161.7z"/>
		<path class="st13" d="M264.8,219.9c-0.4-2.2-1.7-3.9-2.8-3.9c-1.1,0-1.7,1.7-1.3,3.9c0.4,2.2,1.7,3.9,2.8,3.9
			C264.7,223.8,265.2,222.1,264.8,219.9z"/>
		<path class="st13" d="M281,192c-0.4-2.2-1.7-3.9-2.8-3.9c-1.1,0-1.7,1.7-1.3,3.9c0.4,2.2,1.7,3.9,2.8,3.9
			C280.9,195.9,281.4,194.1,281,192z"/>
		<path class="st13" d="M198.3,161.7c-0.4-2.2-1.7-3.9-2.8-3.9c-1.1,0-1.7,1.7-1.3,3.9c0.4,2.2,1.7,3.9,2.8,3.9
			C198.2,165.6,198.8,163.9,198.3,161.7z"/>
		<path class="st13" d="M212,219.9c-0.4-2.2-1.7-3.9-2.8-3.9c-1.1,0-1.7,1.7-1.3,3.9c0.4,2.2,1.7,3.9,2.8,3.9
			C211.8,223.8,212.4,222.1,212,219.9z"/>
		<path class="st13" d="M228.2,192c-0.4-2.2-1.7-3.9-2.8-3.9c-1.1,0-1.7,1.7-1.3,3.9c0.4,2.2,1.7,3.9,2.8,3.9
			C228,195.9,228.6,194.1,228.2,192z"/>
	</g>
	<path class="st13" d="M234.4,136.5h-61.2c-12.5,0-23.5,5.8-30.8,14.7C153.1,153.7,227.3,144.3,234.4,136.5z"/>
	<path class="st13" d="M254.2,226.6C197.6,208.2,159,171,168,143.4c0.8-2.5,1.9-4.7,3.4-6.9c-21.4,0.9-38.3,18.9-37.7,40.5l2,72.7
		h213c-0.4-6-0.9-12-1.6-17.9C324.3,239.5,289.9,238.2,254.2,226.6z"/>
	<path class="st14" d="M70.3,286.1l6.9,0c0,0-2.8,9.2-3.4,16.8l-6.1,0.4C70.8,298.8,70.3,286.1,70.3,286.1z"/>
	<path class="st14" d="M109.1,285.1l-6.7,2c0,0,1.1,8.9,0.3,16.7l5.9-1.4C106.4,298.6,109.1,285.1,109.1,285.1z"/>
	<path class="st15" d="M49.5,312.6H75c0,0,1.3-11.1-3.3-12.8c-4.6-1.7-4.3,6.9-15.2,8.2C53.1,308.2,49.7,311.3,49.5,312.6z"/>
	<path class="st15" d="M124.1,312.6H98.3c0,0,1.7-9.8,6.8-11.3c5.1-1.5,2.4,6.1,13.2,7.2C121.7,308.8,124.3,311.5,124.1,312.6z"/>
	<path class="st16" d="M98.4,173.1c-5,20.2-0.5,125.6-0.5,125.6l14.6-2.7c0,0,13.5-109.9,16.8-126.4L98.4,173.1z"/>
	<path class="st17" d="M111.7,172.1l-13.3,1.1c-5,20.2-0.5,125.6-0.5,125.6l5.5-1C100.7,283.1,105.2,185.3,111.7,172.1z"/>
	<path class="st16" d="M64.5,290.4l16.1,3.8c0,0,12.3-82,17-99.2l8.7-0.4c5.1-15.3,14.1-24.8,22.6-23.1c0,0,5.6-26.3,20.5-44.2
		c0,0,0.1-19.5-2.5-22.1c-2.7-2.7-28.3-12.7-43.2,3.5c-14.9,16.2-29.2,48.6-33.2,65.7C62.4,209.2,64.5,290.4,64.5,290.4z"/>
	<path class="st18" d="M146.9,105.2c-2.7-2.7-28.3-12.7-43.2,3.5c-12.9,14.1-25.3,40.2-31,58c13.7,1.2,30.3-2.4,46.2-11.1
		C127.9,150.8,149.6,107.9,146.9,105.2z"/>
	<path class="st17" d="M103.7,108.8c-14.9,16.2-29.2,48.6-33.2,65.7c-8.1,34.8-6,116-6,116l4,0.9c-0.9-19.4,0.4-42.7,4.1-67.6
		c7.2-48.3,23.8-62.7,30.4-75.8c0-0.4,4.5-14.1,4.5-14.5c0-12.4,4.7-22.4,10.4-22.4c2.6,0,5,2.1,6.8,5.5c3.7-7.9,9.6-13.1,16.2-13.1
		c1.7,0,3.4,0.4,5,1C140.5,101.2,117.5,93.7,103.7,108.8z"/>
	<path class="st19" d="M91.2,161.4c-10.2-5.5-10.4-10.2-10.4-10.2s21.6-48.4,32.1-47.8C128.9,104.5,98.5,164.7,91.2,161.4z"/>
	<path class="st0" d="M143.8,103.7c4,11.6,0.4,24.9-6.6,35.9l-20.9-10.1c0,0,8.5-17.5,2.7-27.1C126.1,99.5,134.5,101.4,143.8,103.7z
		"/>
	<path class="st19" d="M118.9,102.4c3.4,5.7,1.9,14,0.1,20c1.3,0.1,2.5,0.1,3.8,0.1c9.1,0,17.1-1.9,22.4-4.9
		c0.5-4.7,0.1-9.4-1.5-13.9C134.5,101.4,126.1,99.5,118.9,102.4z"/>
	<path class="st0" d="M150.8,170.5c5.7-7.1,7.5-13.8,7.5-13.8l-27.1-16.2c0,0-13.1-32.8-15-35.4c-4.1-5.3-12.1,2.1-16,9.5
		c-3.9,7.3,4.3,31.7,16.1,44.3C118,160.8,150.8,170.5,150.8,170.5z"/>
	<path class="st1" d="M126.3,154.7c-11.8-12.6-20-37-16.1-44.3c1.2-2.3,2.9-4.6,4.6-6.5c-4.3-2.6-11.1,4.1-14.7,10.7
		c-3.9,7.3,4.3,31.7,16.1,44.3c1.8,1.9,34.5,11.6,34.5,11.6c1.7-2.1,3-4.1,4.1-6C145.3,161.6,127.6,156.1,126.3,154.7z"/>
	<path class="st20" d="M125,103.4c5.4-4.8,4.3-14.9,4.3-14.9l16.1,3.8c-0.3,4.8-1.4,10.1-2.9,15.8c0,0-2.7,7.4-7,7.1
		C128.6,114.5,125,103.4,125,103.4z"/>
	<path class="st21" d="M124.4,101.2l3-0.5c0,0,5.1,12.8,9.6,11.9c4.5-0.9,6.2-7,6.2-7l0.8,0.4c0,0-0.3,9.1-3,13.1l-3.8-3l-5.3,3
		C131.8,119.1,125.5,113.9,124.4,101.2z"/>
	<path class="st22" d="M130.3,83.7c-0.2,2.8-1.8,17.6-0.9,18.7c0.9,1.1,8.3,7,11.4,6.9c3.1-0.1,6.2-3.4,7-5.4
		c0.8-2,4.9-15.8,5.2-18.9C153.5,79.6,130.7,82.1,130.3,83.7z"/>
	<path class="st23" d="M128.9,96.6c-3.3-9.2-2.1-13.5-2.1-13.5l7.4-2.5c-0.8,3.4-0.8,5.8-2,9.4c-0.2,0.5-1.7-0.7-1.9-0.2
		C129.8,91.1,129.5,95.2,128.9,96.6z"/>
	<path class="st15" d="M149.2,69.8c-5.3-6.2-22.2,1.7-23,3.2c-0.8,1.5-1.4,3.6,0.3,12.5c7.4-2.7,15.9-5.7,25.9-0.8
		C152.4,84.7,154.5,75.9,149.2,69.8z"/>
	<path class="st24" d="M134.4,73.8c0.7-2.7,2.7-4.8,5.4-6.1c-6.3,0.9-13.1,4.4-13.6,5.3c-0.8,1.5-1.4,3.6,0.3,12.5
		c3.2-1.2,6.6-2.4,10.3-3C134.6,79.9,133.7,76.8,134.4,73.8z"/>
	<path class="st25" d="M166.5,80.5c-5.5-4.4-25.4-2.3-36.5,3.8c7.8-2.4,24.9-4,22,5.5C163,87.7,172,84.9,166.5,80.5z"/>
	<path class="st22" d="M150.8,87.9l5.3,1.3c0,0-0.3,7-2.1,7.7c-1.8,0.8-5-0.2-5-0.2L150.8,87.9z"/>
	<g>
		<polygon class="st26" points="156.8,89.8 137.6,85.4 128.2,86.6 128,85.4 137.7,84.2 157.1,88.7 		"/>
	</g>
	<g>
		<path class="st26" d="M141.4,95.6c-1.6,0-3.1-0.4-4.1-1c-0.8-0.5-1.3-1-1.4-1.6c-0.4-1.5,1.2-7.2,1.5-8.4l1.1,0.3
			c-0.7,2.5-1.7,6.8-1.5,7.8c0.1,0.3,0.4,0.6,0.9,0.9c1.2,0.7,3.2,1.2,5.2,0.6c0.6-0.2,1.8-3.7,2.5-7.6l1.1,0.2
			c-0.4,2.4-1.6,8-3.4,8.5C142.8,95.6,142.1,95.6,141.4,95.6z"/>
	</g>
	<g>
		<path class="st26" d="M151.7,98c-1.5,0-2.7-0.4-3.6-0.9c-0.8-0.5-1.3-1.1-1.5-1.7c-0.4-1.5,1-7.3,1.2-8.5l1.1,0.3
			c-0.6,2.6-1.5,7-1.2,7.9c0.1,0.3,0.4,0.7,1,1c1.1,0.6,3,1,4.8,0.5c0.6-0.3,1.7-3.9,2.2-7.8l1.1,0.2c-0.4,2.4-1.4,8.2-3,8.7
			C153.2,97.9,152.4,98,151.7,98z"/>
	</g>
	<path class="st20" d="M147.7,87.9c0,0,1.7,10.3,0.7,11.3c-1,1-5.1,0-5.1,0L147.7,87.9z"/>
	<path class="st22" d="M147.1,89c0,0,1.4,8.5,0.6,9.4c-0.8,0.8-4.2,0-4.2,0L147.1,89z"/>
	<path class="st10" d="M224.1,143.2c2.5,4.2,4.9,1.7,4.3,0c-1.3-3.6-4.6-4.2-3.4-7.8c0.7-2.1,0-5.5-4.3-6.3c-4.3-0.8-10,1.4-6.9,4.5
		C216.9,136.6,222.1,139.8,224.1,143.2z"/>
	<path class="st27" d="M194.9,172.3l4.4,4c1.4,1.2,3.4,1.2,4.8-0.1l6.6-6.4c1.5-1.4,1.4-3.8-0.2-5.2l-4.2-3.6L194.9,172.3z"/>
	<path class="st28" d="M204.9,172.5l6.6-6.5c-0.2-0.5-0.5-0.9-1-1.3l-4.2-3.6l-11.3,11.1l4.4,4c1.4,1.2,3.4,1.2,4.8-0.1l2.4-2.3
		L204.9,172.5z"/>
	<path class="st29" d="M155.8,178.2l11.4,7.3l24.7-11.4l2.6,2.2c1.2,1,2.9,0.9,4-0.1l11.9-11.8c1.2-1.2,1.2-3.2-0.2-4.3l-23.1-19.8
		l-12.1,1.2l-5.6,5.5l2.5,13.4L155.8,178.2z"/>
	<path class="st27" d="M190.5,167.5c-8.3-8.7-13.6-18.3-15.2-26.1l-0.3,0l-5.6,5.5l2.5,13.4l-16.1,17.9l11.4,7.3l24.7-11.4l2.6,2.2
		c1.2,1,2.9,0.9,4-0.1l0.8-0.8C196.3,173.1,193.3,170.5,190.5,167.5z"/>
	<polygon class="st28" points="174.5,162.5 184,171.8 168.6,180.7 161.5,176.9 	"/>
	<path class="st10" d="M142.5,169.1c3.8-11.8,9-18,9-18l11,7.8l8.5-2.8l0.8,4.3c0,0,7.7,6.6,8.4,8.8c0.7,2.2-0.8,5.1-2.2,4.8
		c-1.3-0.3-2.7-0.8-2.7-0.8s-5.7,6.6-10.4,5.3c-4.6-1.3-10.4-5.3-10.4-5.3L142.5,169.1z"/>
	<path class="st11" d="M180.2,169.1c-0.7-2.2-8.4-8.8-8.4-8.8L171,156l-5.6,1.9c-0.4,1.8-1.2,3.5-2.5,4.7
		c-3.9,3.8-11.1,3.2-17.4-1.1c-1,2.2-2,4.7-2.9,7.5l12,4.1c0,0,5.8,4,10.4,5.3c4.6,1.3,10.4-5.3,10.4-5.3s1.3,0.5,2.7,0.8
		C179.4,174.3,180.9,171.3,180.2,169.1z"/>
	<path class="st22" d="M131.6,90.5c-1.6-5.1-2.2-7.4-4.4-6.7c-2.2,0.6-1.7,7.3,0.8,8.3C130.6,93.2,131.6,90.5,131.6,90.5z"/>
	<path class="st30" d="M130.5,90.2c-1-3.3-1.4-4.7-2.8-4.3c-1.4,0.4-1.1,4.7,0.5,5.4C129.8,91.9,130.5,90.2,130.5,90.2z"/>
	<path class="st22" d="M130.8,90c-0.7-2.1-0.9-3.1-1.8-2.8c-0.9,0.3-0.7,3,0.3,3.5C130.3,91.1,130.8,90,130.8,90z"/>
	<path class="st31" d="M333.3,197.9C333.3,197.9,333.3,197.9,333.3,197.9c-14.7-0.3-17.7,102.2-17.7,102.2h5.7h20.4h19.9l6.6-102.2
		H333.3z"/>
	<path class="st32" d="M333.9,196.6C333.8,196.6,333.8,196.6,333.9,196.6c-14.7-0.3-0.6,111.8-0.6,111.8h5.7h20.4h19.9l2.2-111.8
		H333.9z"/>
	<path class="st33" d="M371.5,308.4H200v-64.8h155.3C364.2,264.6,370.3,286.1,371.5,308.4z"/>
	<path class="st12" d="M300.2,297.7c-50.3-11.1-89.2-34.1-94-54.2H200v64.8h171.4c-0.1-1.8-0.2-3.6-0.4-5.5
		C351.5,305.1,326.6,303.6,300.2,297.7z"/>
	<path class="st32" d="M219.3,308.4h-26.2l-8.6-64.8h23.7C212.4,264.6,216.2,286.1,219.3,308.4z"/>
	<path class="st33" d="M375.2,308.4h37.7c0,0-7.2-111.5-32.7-111.8C354.6,196.3,375.2,308.4,375.2,308.4z"/>
	<path class="st31" d="M135,196.6C135,196.6,135,196.6,135,196.6c-14.7-0.3-0.6,111.8-0.6,111.8h5.7h20.4h19.9l2.2-111.8H135z"/>
	<path class="st33" d="M176.4,308.4H214c0,0-7.2-111.5-32.7-111.8C155.8,196.3,176.4,308.4,176.4,308.4z"/>
	<g>
		<g>
			<path class="st10" d="M229,214c-1.9-7.3-9.3-2.1-9.3,3.4c0,7.3,8.2,17.3,16.2,14.9c9.7-2.9,6.3-17.2,2.7-23.4
				c-2.9-5.2-7.2-9.4-11.6-13.4c-4.9-4.5-14.1-8.5-15.3-15.4c-0.1-0.8-1.1-0.6-1,0.4c1.1,6.3,6.6,10.3,11.1,14.3
				c5.7,5.1,11.5,10.3,14.7,17.4c2.1,4.5,5.1,21.5-4.1,18.2c-3.4-1.2-6.6-5.1-8.1-8.2c-0.7-1.5-1.2-3.2-1.3-4.8
				c-0.1-1.9,1.8-6.2,2.7-2.5C226,215.7,229.3,214.9,229,214z"/>
		</g>
		<g>
			<path class="st10" d="M255.3,191.7c-1.5-10.4,13.3-5.6,17.5-2.1c3.5,2.8,5.8,6.9,6.8,11.2c0.9,4.1,0.8,8.8-1.3,12.5
				c-3.9,7-13.2,4.4-18.9,1.6c-15.2-7.6-22.8-24.3-36.2-34.2c-0.8-0.6-1.7-0.3-1.1,0.1c11.9,8.8,17,23.5,29,32.1
				c7.4,5.3,20.1,10.1,28,3c9.4-8.4,2.9-24.7-6.7-29.7c-5.8-3-21.9-4.2-20.4,6.4C252.1,193.3,255.4,192.6,255.3,191.7z"/>
		</g>
		<g>
			<path class="st10" d="M287.4,222.1c-1.7-2.9,0.3-4.3,6-4.3c1.2,0.6,2.2,1.5,3,2.7c1.6,2.5,1,5.4-0.2,7.9
				c-3.8,8.1-14.1,10.9-22,7.8c-9.3-3.6-19.3-10.7-25.1-18.6c-0.6-0.8-1.5-0.2-1.3,0.1c10.1,13.7,28.2,28.4,45.2,17
				c6.1-4.1,12.2-15.2,2.1-18.6c-4.2-1.4-13.6,0.7-11,6.8C284.4,223.7,287.6,222.7,287.4,222.1z"/>
		</g>
	</g>
	<g>
		<g>
			
				<rect x="238.7" y="183.2" transform="matrix(0.9022 0.4313 -0.4313 0.9022 102.8009 -85.2605)" class="st10" width="1.5" height="1.7"/>
		</g>
		<g>
			
				<rect x="207.4" y="216.1" transform="matrix(0.9021 0.4315 -0.4315 0.9021 113.8176 -68.4788)" class="st10" width="0.8" height="0.9"/>
		</g>
		<g>
			
				<rect x="246.1" y="233.3" transform="matrix(0.9023 0.4311 -0.4311 0.9023 124.9184 -83.4688)" class="st10" width="1" height="1.1"/>
		</g>
		<g>
			
				<rect x="213.7" y="235.6" transform="matrix(0.9022 0.4312 -0.4312 0.9022 122.9359 -69.344)" class="st10" width="1.5" height="1.7"/>
		</g>
		<g>
			
				<rect x="261" y="208" transform="matrix(0.4275 0.904 -0.904 0.4275 338.3633 -117.0672)" class="st10" width="1.2" height="1.3"/>
		</g>
		<g>
			
				<rect x="313.2" y="234.2" transform="matrix(0.4275 0.904 -0.904 0.4275 391.9471 -149.2176)" class="st10" width="1.2" height="1.3"/>
		</g>
		<g>
			
				<rect x="218.4" y="172.2" transform="matrix(0.9022 0.4314 -0.4314 0.9022 96.0743 -77.6175)" class="st10" width="1.5" height="1.7"/>
		</g>
		<g>
			
				<rect x="219.8" y="204.5" transform="matrix(0.9022 0.4314 -0.4314 0.9022 110.1592 -75.0627)" class="st10" width="1.5" height="1.7"/>
		</g>
		<g>
			<polygon class="st10" points="239.5,179.4 239.2,178.2 238,178.4 238.3,179.7 			"/>
		</g>
		<g>
			<polygon class="st10" points="218.8,179.7 218.4,178.5 217.3,178.8 217.6,180 			"/>
		</g>
		<g>
			<polygon class="st10" points="278.2,184.2 277.9,183 276.7,183.2 277,184.5 			"/>
		</g>
		<g>
			<polygon class="st10" points="312.3,213 312,211.8 310.8,212 311.1,213.2 			"/>
		</g>
	</g>
	<path class="st17" d="M98.2,196.7l-7.2-7c0,0,5.3,3.1,8.2,3.4c3,0.3,16.3-2.7,16.3-2.7l-11.4,5.7L98.2,196.7z"/>
	<path class="st23" d="M145.3,85.3l-6.3-1.5c0,0,0.6-1.6,1.4-1.9c0.8-0.3,4.4,0.7,4.9,1.2C145.8,83.7,145.3,85.3,145.3,85.3z"/>
	<path class="st23" d="M155.2,87.6l-6.3-1.5c0,0,0.6-1.6,1.4-1.9c0.8-0.3,4.3,0.7,4.9,1.2C155.7,86,155.2,87.6,155.2,87.6z"/>
	<path class="st34" d="M152.8,92.1c0.2-0.9-0.1-1.7-0.6-1.8c-0.5-0.1-1.2,0.5-1.4,1.3c-0.2,0.9,0.1,1.7,0.6,1.8S152.6,93,152.8,92.1
		z"/>
	<path class="st34" d="M143.3,89.8c0.2-0.9-0.1-1.7-0.6-1.8c-0.5-0.1-1.2,0.5-1.4,1.3c-0.2,0.9,0.1,1.7,0.6,1.8
		C142.5,91.2,143.1,90.7,143.3,89.8z"/>
	<polygon class="st27" points="187.1,141.8 207.8,162 195.6,174.6 197,175.5 209.5,161.9 	"/>
	<path class="st1" d="M121.1,122.8c1,0,1.9,0,2.9-0.1c-3.4-8.2-6.9-16.4-7.9-17.7c-4.1-5.3-12.1,2.1-16,9.5
		c-0.5,0.9-0.8,2.1-0.9,3.5C104.7,121,112.5,122.8,121.1,122.8z"/>
	<g>
		<path class="st27" d="M188,145.1c0-1-0.8-1.7-1.7-1.7c-1,0-1.7,0.8-1.7,1.7c0,1,0.8,1.7,1.7,1.7C187.2,146.8,188,146.1,188,145.1z
			"/>
		<circle class="st27" cx="189.4" cy="148.1" r="1.4"/>
		<path class="st1" d="M190.3,148.1c0-0.5-0.4-0.9-0.9-0.9c-0.5,0-0.9,0.4-0.9,0.9c0,0.5,0.4,0.9,0.9,0.9
			C189.9,149,190.3,148.6,190.3,148.1z"/>
	</g>
	<g>
		<polygon class="st27" points="200.9,165.2 199.7,164.1 192.9,171.2 194.1,172.4 		"/>
		<polygon class="st27" points="198.6,163 197.3,161.8 190.5,168.9 191.7,170.1 		"/>
		<polygon class="st27" points="196.2,160.7 195,159.5 188.2,166.6 189.4,167.8 		"/>
		<polygon class="st27" points="193.8,158.4 192.6,157.2 185.8,164.4 187,165.6 		"/>
	</g>
	<g>
		<path class="st32" d="M391.2,216.6c-1.1-8.7-5.8-15.3-10.6-14.6c-4.8,0.6-7.9,8.2-6.8,16.9c1.1,8.7,5.8,15.3,10.6,14.6
			C389.2,232.9,392.3,225.3,391.2,216.6z"/>
		<path class="st33" d="M390.5,216.1c-0.8-6.8-4.6-12-8.4-11.5c-3.8,0.5-6.2,6.5-5.4,13.3c0.8,6.8,4.6,12,8.4,11.5
			C388.9,228.9,391.3,222.9,390.5,216.1z"/>
		<path class="st32" d="M193.5,216.6c-1.1-8.7-5.8-15.3-10.6-14.6c-4.8,0.6-7.9,8.2-6.8,16.9c1.1,8.7,5.8,15.3,10.6,14.6
			C191.5,232.9,194.6,225.3,193.5,216.6z"/>
		<path class="st33" d="M192.8,216.1c-0.8-6.8-4.6-12-8.4-11.5c-3.8,0.5-6.2,6.5-5.4,13.3c0.8,6.8,4.6,12,8.4,11.5
			C191.2,228.9,193.6,222.9,192.8,216.1z"/>
	</g>
	<path class="st35" d="M422,209.6l8.9,1c0,0-0.3,9.1-3.3,9.5C424.7,220.5,422,209.6,422,209.6z"/>
	<path class="st34" d="M143.7,101.7l-6.1-3.7c0,0-2.3,1.5-1.2,3.5c1.2,2.1,4.5,2.4,4.5,2.4L143.7,101.7z"/>
	<path class="st36" d="M141.3,102.9l1.7-1.4l-5.4-3.3c0,0-1,0.7-1.3,1.7L141.3,102.9z"/>
</g>
</svg>
