<?xml version="1.0" standalone="no"?><svg xmlns="http://www.w3.org/2000/svg" viewBox="0 0 1440 320"><path fill="#f4f4f4" fill-opacity="1" d="M0,192L40,197.3C80,203,160,213,240,208C320,203,400,181,480,154.7C560,128,640,96,720,80C800,64,880,64,960,69.3C1040,75,1120,85,1200,117.3C1280,149,1360,203,1400,229.3L1440,256L1440,320L1400,320C1360,320,1280,320,1200,320C1120,320,1040,320,960,320C880,320,800,320,720,320C640,320,560,320,480,320C400,320,320,320,240,320C160,320,80,320,40,320L0,320Z"></path></svg>